<svg width="13" height="13" viewBox="0 0 13 13" fill="none" xmlns="http://www.w3.org/2000/svg">
<path d="M7.48167 3.95534C7.22593 3.89284 6.96008 3.88362 6.70063 3.92825C6.44118 3.97287 6.19368 4.07039 5.97352 4.21473C5.95727 4.22552 5.94358 4.23972 5.9334 4.25634C5.92321 4.27297 5.91679 4.29162 5.91456 4.31099C5.91234 4.33036 5.91437 4.34998 5.92052 4.36849C5.92668 4.38699 5.93679 4.40392 5.95017 4.4181C5.97836 4.44963 6.0168 4.47016 6.05868 4.47605C6.10056 4.48193 6.14318 4.4728 6.17896 4.45027C6.35995 4.33155 6.56343 4.25135 6.77675 4.21466C6.99006 4.17798 7.20865 4.1856 7.41889 4.23704C7.7882 4.30045 8.11754 4.50712 8.33526 4.81209C8.55299 5.11706 8.64149 5.49567 8.58152 5.86555L8.56751 5.92729C8.55072 6.00067 8.52781 6.07251 8.49903 6.14207C8.4842 6.18289 8.48494 6.22774 8.50112 6.26804C8.51729 6.30834 8.54777 6.34126 8.58671 6.36049C8.60442 6.37075 8.62407 6.37722 8.64442 6.37947C8.66476 6.38172 8.68536 6.3797 8.70488 6.37355C8.7244 6.3674 8.74243 6.35725 8.75782 6.34375C8.7732 6.33024 8.7856 6.31368 8.79423 6.29512C8.84027 6.18754 8.87403 6.07512 8.89488 5.95997L8.89954 5.93974C8.97243 5.48887 8.86436 5.02746 8.59884 4.65585C8.33332 4.28424 7.93183 4.03249 7.48167 3.95534ZM9.03806 10.7464H8.56025L9.11173 10.1451C9.17235 10.069 9.20575 9.97476 9.20659 9.87745C9.20744 9.78013 9.17569 9.68534 9.1164 9.60817C9.0529 9.52882 8.97189 9.46524 8.87973 9.4224C8.78757 9.37956 8.68675 9.35862 8.58515 9.36122C8.4259 9.3455 8.26681 9.39254 8.14172 9.49234C8.01663 9.59214 7.93542 9.73682 7.91538 9.89558C7.92649 9.94487 7.95404 9.98891 7.9935 10.0205C8.03296 10.052 8.08198 10.0692 8.1325 10.0692C8.18302 10.0692 8.23204 10.052 8.2715 10.0205C8.31096 9.98891 8.33851 9.94487 8.34962 9.89558C8.35714 9.83928 8.38635 9.78814 8.43102 9.75306C8.4757 9.71798 8.5323 9.70173 8.58878 9.70777C8.6183 9.70728 8.64752 9.7138 8.67403 9.72679C8.70054 9.73977 8.7236 9.75886 8.74131 9.78248C8.75975 9.80642 8.77055 9.83536 8.77231 9.86553C8.77407 9.89569 8.7667 9.92569 8.75117 9.95161L7.95689 10.8175C7.93382 10.841 7.91945 10.8718 7.91615 10.9046C7.91285 10.9374 7.92081 10.9703 7.93873 10.998C7.96073 11.0285 7.9899 11.053 8.02365 11.0695C8.05741 11.086 8.09471 11.0938 8.13224 11.0924H9.03754C9.06352 11.0984 9.0905 11.0983 9.11647 11.0924C9.14243 11.0864 9.16673 11.0747 9.18755 11.0581C9.20837 11.0415 9.22518 11.0204 9.23673 10.9964C9.24829 10.9724 9.25428 10.9461 9.25428 10.9194C9.25428 10.8928 9.24829 10.8665 9.23673 10.8425C9.22518 10.8185 9.20837 10.7974 9.18755 10.7808C9.16673 10.7641 9.14243 10.7524 9.11647 10.7465C9.0905 10.7405 9.06404 10.7405 9.03806 10.7464ZM4.5987 9.85719C4.47339 9.90539 4.34024 9.93002 4.20597 9.92982C3.99478 9.95083 3.78372 9.88858 3.61773 9.75632C3.45174 9.62405 3.34394 9.43222 3.31727 9.22166C3.34394 9.0111 3.45174 8.81927 3.61773 8.68701C3.78372 8.55474 3.99478 8.49249 4.20597 8.5135C4.33875 8.51332 4.47044 8.5374 4.59455 8.58458C4.64487 8.6056 4.70077 8.60916 4.75335 8.59468C4.80592 8.58019 4.85212 8.54851 4.88456 8.50468C4.89634 8.48337 4.90307 8.45964 4.90424 8.43532C4.90542 8.41101 4.901 8.38674 4.89133 8.36439C4.88166 8.34205 4.867 8.32222 4.84847 8.30643C4.82993 8.29063 4.80803 8.2793 4.78443 8.2733C4.59962 8.20347 4.40353 8.1683 4.20597 8.16954C3.89165 8.13864 3.57767 8.23146 3.33067 8.42829C3.08366 8.62511 2.92309 8.91045 2.88304 9.22373C2.92297 9.53711 3.08349 9.82258 3.3305 10.0195C3.57752 10.2165 3.89158 10.3093 4.20597 10.2785C4.40612 10.2789 4.60459 10.2419 4.79118 10.1695C4.81477 10.1634 4.83665 10.152 4.85512 10.1361C4.87358 10.1202 4.88815 10.1003 4.89768 10.0779C4.90721 10.0555 4.91145 10.0311 4.91008 10.0068C4.9087 9.98249 4.90175 9.95881 4.88975 9.9376C4.85732 9.89345 4.81097 9.86151 4.75817 9.84692C4.70537 9.83234 4.6492 9.83595 4.5987 9.85719ZM6.3372 8.1659C6.02288 8.13475 5.70882 8.22748 5.46184 8.42437C5.21486 8.62126 5.05446 8.90675 5.01478 9.2201C5.05471 9.53338 5.21516 9.81877 5.46206 10.0157C5.70896 10.2126 6.02288 10.3056 6.3372 10.2748C6.6516 10.3057 6.96565 10.2128 7.21267 10.0159C7.45968 9.81895 7.6202 9.53348 7.66013 9.2201C7.62008 8.90682 7.45951 8.62148 7.2125 8.42465C6.9655 8.22783 6.65152 8.13501 6.3372 8.1659ZM6.3372 9.92982C6.12559 9.95109 5.91406 9.88876 5.74781 9.75614C5.58155 9.62353 5.47375 9.43114 5.44746 9.2201C5.47413 9.00964 5.58186 8.8179 5.74773 8.68564C5.9136 8.55339 6.12453 8.49107 6.33564 8.51194C6.54684 8.49093 6.7579 8.55318 6.92388 8.68545C7.08987 8.81771 7.19767 9.00955 7.22434 9.2201C7.19767 9.43036 7.09009 9.62195 6.92445 9.75417C6.7588 9.8864 6.54814 9.94885 6.3372 9.92826V9.92982ZM4.248 7.69276C4.29224 7.69034 4.33388 7.67105 4.36435 7.63887C4.39482 7.60669 4.4118 7.56406 4.4118 7.51974C4.4118 7.47543 4.39482 7.43279 4.36435 7.40061C4.33388 7.36843 4.29224 7.34915 4.248 7.34672H2.97071C2.59765 7.34714 2.23638 7.21603 1.95041 6.97645C1.66444 6.73686 1.47209 6.40414 1.40716 6.03676C1.34224 5.66939 1.4089 5.29089 1.59542 4.9678C1.78195 4.64471 2.0764 4.39772 2.42701 4.27025C2.46837 4.25465 2.50217 4.2238 2.52147 4.18404C2.54077 4.14428 2.5441 4.09864 2.53077 4.0565C2.44405 3.79578 2.41026 3.52036 2.43139 3.2464C2.45251 2.97244 2.52814 2.70546 2.65382 2.46112C2.7795 2.21678 2.95271 1.99999 3.16329 1.82348C3.37386 1.64697 3.61757 1.51428 3.8801 1.43321C4.14264 1.35213 4.41872 1.3243 4.69216 1.35134C4.9656 1.37838 5.23088 1.45975 5.47245 1.59068C5.71402 1.72161 5.92702 1.89946 6.09894 2.1138C6.27086 2.32814 6.39825 2.57465 6.47364 2.83888C6.4835 2.86956 6.50158 2.89694 6.52591 2.91807C6.55024 2.9392 6.57989 2.95326 6.61164 2.95872C6.64341 2.96404 6.67604 2.9603 6.70577 2.94791C6.73551 2.93552 6.76114 2.91499 6.77973 2.88869C6.94031 2.66558 7.15152 2.48375 7.39601 2.35812C7.64051 2.2325 7.91131 2.16665 8.1862 2.166H8.19761C8.42923 2.16547 8.6585 2.21238 8.87131 2.30384C9.08411 2.3953 9.27593 2.52936 9.43495 2.69777C9.59731 2.866 9.72383 3.06545 9.80686 3.28402C9.88988 3.50259 9.92767 3.73574 9.91795 3.96934C9.91697 4.0145 9.93367 4.05825 9.96448 4.09127C9.99528 4.1243 10.0378 4.14399 10.0829 4.14615C10.128 4.14832 10.1722 4.13278 10.206 4.10286C10.2398 4.07293 10.2606 4.03098 10.264 3.98594C10.2759 3.70535 10.2307 3.42526 10.1312 3.16263C10.0317 2.90001 9.87988 2.66032 9.68501 2.45808C9.49415 2.25638 9.2642 2.09569 9.00919 1.9858C8.75417 1.8759 8.47944 1.81913 8.20176 1.81892C7.9219 1.81829 7.64476 1.87384 7.38677 1.9823C7.12878 2.09075 6.89518 2.2499 6.69984 2.4503C6.47207 1.94892 6.07949 1.54064 5.58741 1.29342C5.09533 1.04619 4.53343 0.974919 3.99521 1.09146C3.45699 1.20801 2.97491 1.50534 2.62918 1.93399C2.28345 2.36263 2.09493 2.89674 2.09498 3.44743C2.09514 3.63558 2.11708 3.82307 2.16035 4.00618C1.7602 4.19063 1.43512 4.50631 1.23901 4.90088C1.04291 5.29545 0.987566 5.74519 1.08216 6.17554C1.17676 6.60588 1.41561 6.99095 1.7591 7.26691C2.1026 7.54287 2.5301 7.69312 2.97071 7.69276H4.248ZM10.7065 4.26558C10.6707 4.23888 10.626 4.22703 10.5817 4.23249C10.5374 4.23796 10.4969 4.26031 10.4687 4.2949C10.4404 4.32949 10.4267 4.37364 10.4302 4.41814C10.4337 4.46265 10.4543 4.50408 10.4876 4.5338C10.7403 4.74116 10.9228 5.02152 11.0101 5.33654C11.0974 5.65157 11.0852 5.98587 10.9753 6.29373C10.8654 6.60158 10.663 6.86797 10.396 7.05645C10.1289 7.24494 9.81009 7.34631 9.48319 7.34672H4.95719C4.91294 7.34915 4.8713 7.36843 4.84084 7.40061C4.81037 7.43279 4.79339 7.47543 4.79339 7.51974C4.79339 7.56406 4.81037 7.60669 4.84084 7.63887C4.8713 7.67105 4.91294 7.69034 4.95719 7.69276H9.48319C9.88155 7.69241 10.2701 7.56897 10.5956 7.33933C10.9211 7.10969 11.1676 6.78507 11.3016 6.4099C11.4355 6.03473 11.4502 5.62734 11.3437 5.24349C11.2372 4.85964 11.0146 4.51809 10.7065 4.26558Z" fill="#EBEDF0"/>
</svg>
