<svg width="16" height="16" viewBox="0 0 16 16" fill="none" xmlns="http://www.w3.org/2000/svg">
<path d="M14.3623 7.36325C14.565 7.64745 14.6663 7.78959 14.6663 7.99992C14.6663 8.21025 14.565 8.35238 14.3623 8.63658C13.4516 9.91365 11.1258 12.6666 7.99967 12.6666C4.87353 12.6666 2.54774 9.91365 1.63703 8.63658C1.43435 8.35238 1.33301 8.21025 1.33301 7.99992C1.33301 7.78959 1.43435 7.64745 1.63703 7.36325C2.54774 6.08621 4.87353 3.33325 7.99967 3.33325C11.1258 3.33325 13.4516 6.08621 14.3623 7.36325Z" stroke="#B9BEC9"/>
<path d="M10 8C10 6.8954 9.1046 6 8 6C6.8954 6 6 6.8954 6 8C6 9.1046 6.8954 10 8 10C9.1046 10 10 9.1046 10 8Z" stroke="#B9BEC9"/>
</svg>
