<svg width="16" height="16" viewBox="0 0 16 16" fill="none" xmlns="http://www.w3.org/2000/svg">
<path d="M12.959 10.2926C13.5754 9.68072 14.0513 9.07265 14.3623 8.63658C14.565 8.35238 14.6663 8.21025 14.6663 7.99992C14.6663 7.78959 14.565 7.64745 14.3623 7.36325C13.4516 6.08621 11.1258 3.33325 7.99967 3.33325C7.39447 3.33325 6.81927 3.43643 6.27852 3.6121M4.49795 4.4982C3.15379 5.40472 2.16111 6.62836 1.63703 7.36325C1.43435 7.64745 1.33301 7.78959 1.33301 7.99992C1.33301 8.21025 1.43435 8.35238 1.63703 8.63658C2.54774 9.91365 4.87353 12.6666 7.99967 12.6666C9.32687 12.6666 10.5097 12.1704 11.5014 11.5017" stroke="#B9BEC9" stroke-linecap="round" stroke-linejoin="round"/>
<path d="M6.57191 6.66675C6.21855 7.02008 6 7.50828 6 8.04748C6 9.12588 6.8742 10.0001 7.9526 10.0001C8.4918 10.0001 8.98 9.78155 9.33333 9.42815" stroke="#B9BEC9" stroke-linecap="round"/>
<path d="M2 2L14 14" stroke="#B9BEC9" stroke-linecap="round" stroke-linejoin="round"/>
</svg>
