<svg width="16" height="16" viewBox="0 0 16 16" fill="none" xmlns="http://www.w3.org/2000/svg">
<path d="M5.76199 2.09698L4.62544 2.62233C2.87515 3.43138 2 3.8359 2 4.49992C2 5.16394 2.87515 5.56846 4.62545 6.37751L5.76199 6.90285C6.86347 7.41199 7.41427 7.66659 8 7.66659C8.58573 7.66659 9.13653 7.41199 10.238 6.90285L11.3745 6.37751C13.1249 5.56846 14 5.16394 14 4.49992C14 3.8359 13.1249 3.43138 11.3745 2.62233L10.238 2.09698C9.13653 1.58783 8.58573 1.33325 8 1.33325C7.41427 1.33325 6.86347 1.58783 5.76199 2.09698Z" stroke="#ffff" stroke-width="1.5" stroke-linecap="round" stroke-linejoin="round"/>
<path d="M13.8587 7.39819C13.9529 7.53066 14 7.66879 14 7.82066C14 8.47519 13.1249 8.87399 11.3745 9.67153L10.238 10.1894C9.13653 10.6913 8.58573 10.9423 8 10.9423C7.41427 10.9423 6.86347 10.6913 5.76199 10.1894L4.62545 9.67153C2.87515 8.87399 2 8.47519 2 7.82066C2 7.66879 2.04711 7.53066 2.14133 7.39819" stroke="#ffff" stroke-width="1.5" stroke-linecap="round" stroke-linejoin="round"/>
<path d="M13.5845 10.844C13.8615 11.0647 14 11.2846 14 11.545C14 12.1996 13.1249 12.5983 11.3745 13.3959L10.238 13.9137C9.13653 14.4157 8.58573 14.6666 8 14.6666C7.41427 14.6666 6.86347 14.4157 5.76199 13.9137L4.62545 13.3959C2.87515 12.5983 2 12.1996 2 11.545C2 11.2846 2.13852 11.0647 2.41556 10.844" stroke="#ffff" stroke-width="1.5" stroke-linecap="round" stroke-linejoin="round"/>
</svg>
